<?xml version="1.0" encoding="UTF-8" standalone="no"?>
<!-- Generator: Adobe Illustrator 16.0.0, SVG Export Plug-In . SVG Version: 6.00 Build 0)  -->

<svg
   xmlns:dc="http://purl.org/dc/elements/1.1/"
   xmlns:cc="http://creativecommons.org/ns#"
   xmlns:rdf="http://www.w3.org/1999/02/22-rdf-syntax-ns#"
   xmlns:svg="http://www.w3.org/2000/svg"
   xmlns="http://www.w3.org/2000/svg"
   xmlns:sodipodi="http://sodipodi.sourceforge.net/DTD/sodipodi-0.dtd"
   xmlns:inkscape="http://www.inkscape.org/namespaces/inkscape"
   version="1.1"
   id="Capa_1"
   x="0px"
   y="0px"
   width="300"
   height="50"
   viewBox="0 0 210.00002 34.999999"
   xml:space="preserve"
   sodipodi:docname="logo.svg"
   inkscape:version="0.92.5 (0.92.4+202005162354+6c0c36e)"><metadata
   id="metadata3891"><rdf:RDF><cc:Work
       rdf:about=""><dc:format>image/svg+xml</dc:format><dc:type
         rdf:resource="http://purl.org/dc/dcmitype/StillImage" /><dc:title></dc:title></cc:Work></rdf:RDF></metadata><defs
   id="defs3889">

</defs><sodipodi:namedview
   pagecolor="#000000"
   bordercolor="#666666"
   borderopacity="1"
   objecttolerance="10"
   gridtolerance="10"
   guidetolerance="10"
   inkscape:pageopacity="1"
   inkscape:pageshadow="2"
   inkscape:window-width="1871"
   inkscape:window-height="1025"
   id="namedview3887"
   showgrid="false"
   showborder="true"
   inkscape:snap-text-baseline="false"
   inkscape:zoom="2.7724261"
   inkscape:cx="116.66269"
   inkscape:cy="36.719488"
   inkscape:window-x="49"
   inkscape:window-y="27"
   inkscape:window-maximized="1"
   inkscape:current-layer="g836"
   showguides="true"
   scale-x="0.7"
   inkscape:showpageshadow="true"
   borderlayer="false"
   units="px" />

<g
   id="g3856"
   transform="translate(0,5.2064617)">
</g>
<g
   id="g3858"
   transform="translate(0,5.2064617)">
</g>
<g
   id="g3860"
   transform="translate(0,5.2064617)">
</g>
<g
   id="g3862"
   transform="translate(0,5.2064617)">
</g>
<g
   id="g3864"
   transform="translate(0,5.2064617)">
</g>
<g
   id="g3866"
   transform="translate(0,5.2064617)">
</g>
<g
   id="g3868"
   transform="translate(0,5.2064617)">
</g>
<g
   id="g3870"
   transform="translate(0,5.2064617)">
</g>
<g
   id="g3872"
   transform="translate(0,5.2064617)">
</g>
<g
   id="g3874"
   transform="translate(0,5.2064617)">
</g>
<g
   id="g3876"
   transform="translate(0,5.2064617)">
</g>
<g
   id="g3878"
   transform="translate(0,5.2064617)">
</g>
<g
   id="g3880"
   transform="translate(0,5.2064617)">
</g>
<g
   id="g3882"
   transform="translate(0,5.2064617)">
</g>
<g
   id="g3884"
   transform="translate(0,5.2064617)">
</g>


<g
   id="g836"
   inkscape:export-xdpi="96"
   inkscape:export-ydpi="96"
   transform="matrix(0.04400065,0,0,0.04400065,1.7917644,13.075762)"><g
   id="g1445"
   transform="matrix(7.8420697,0,0,7.6854814,1.9417588,582.10593)"
   style="fill:#ffffff;fill-opacity:0.99302326"><path
   inkscape:connector-curvature="0"
   id="path3852"
   d="m 100.05716,-63.108714 c 10.61566,0.83416 21.1552,1.74443 29.86467,4.46258 -8.63969,-1.41458 -19.12848,-3.56499 -29.86467,-3.8663 -4.430856,8.75388 -13.365526,13.054687 -25.687546,13.958627 1.32576,2.8799 3.86313,3.9773 4.48477,8.61749 0.91663,6.93015 -1.44946,17.073232 0.8849,21.688048 1.12278,2.210671 2.94968,2.267761 4.1803,4.161263 -3.01629,3.568157 -10.50148,-0.402805 -11.34832,-4.161263 -1.46216,-6.438541 2.22018,-16.429378 -1.78884,-20.803148 0.28545,7.03165 -1.65563,16.892448 0.30131,23.175575 0.77072,2.464407 3.00042,3.425431 2.39146,5.648789 -14.02841,1.4240899 -8.16394,-18.157952 -10.45708,-29.709264 -2.11869,0.14907 -1.18938,3.1717 -1.19573,4.45306 -0.0634,11.28806 2.31217,26.7627589 -9.85446,25.256204 -0.35205,-2.366084 1.63977,-3.184382 2.39146,-5.347478 2.21702,-6.349733 -0.41549,-15.814069 0.60263,-23.476886 -4.643367,3.50155 0.48527,15.722093 -2.39464,21.992533 -1.652447,3.603045 -6.996747,5.173035 -11.043837,3.561813 0.5265,-2.689597 3.30174,-2.248731 4.47844,-4.751198 1.64293,-3.495208 0.006,-8.519172 0.59627,-13.673175 -8.59529,1.715886 -15.26219,-0.241049 -18.52269,-5.642443 -1.45581,-2.42318 -1.82055,-5.2777 -3.58084,-7.42177 -1.76347,-2.15675 -4.5609,-2.4422 -5.37285,-5.35382 10.63786,-2.565897 11.04701,10.95186 20.60649,11.28806 2.93382,0.10467 4.45306,-0.85001 7.16803,-1.48118 0.75487,-3.4064 2.38512,-5.95327 4.779747,-7.73259 -11.893857,-1.63342 -21.716587,-5.337957 -26.280657,-14.256757 -10.80914,0.53284 -20.7016495,1.97596 -29.8710195,4.16126 8.31935,-3.0258 18.5734395,-4.10417 29.5728795,-4.45623 -0.6502,-3.89801 -6.3307,-2.82598 -9.85446,-2.67691 -6.5495495,0.29179 -14.80546953,1.10692 -20.0165595,2.0838 7.55815,-2.69594 18.1516095,-2.35974 28.3771495,-2.37877 -3.12729,-9.81005 -2.04892,-25.39259 4.77657,-31.19678 -1.93156,-4.868556 -1.33211,-12.845366 1.19573,-16.638716 7.61207,0.34254 12.23323,3.66331 17.02248,6.83501 5.934247,-1.68735 12.176137,-2.52785 20.305197,-2.07747 3.41908,0.19665 6.9809,1.72224 9.55631,1.48119 2.52784,-0.22837 5.31576,-3.07338 7.76431,-4.15493 3.20025,-1.41457 5.89935,-1.94742 9.56266,-2.0838 1.75712,3.98999 2.89258,10.60615 1.19572,15.449326 6.939676,5.92472 9.318446,20.32104 5.972306,32.0912 9.88617,0.75169 21.66267,-0.36157 29.27156,2.67374 -7.10459,-0.91662 -16.81314,-2.70863 -25.973,-2.08063 -1.75395,0.12053 -4.319846,-0.0571 -4.19615,2.38194 z"
   style="fill:#ffffff;fill-opacity:0.99302326;stroke-width:3.17169428"
   inkscape:export-xdpi="96"
   inkscape:export-ydpi="96" /><text
   xml:space="preserve"
   style="font-style:normal;font-weight:normal;font-size:21.33333397px;line-height:1.25;font-family:sans-serif;letter-spacing:0px;word-spacing:0px;fill:#ffffff;fill-opacity:0.99302326;stroke:none"
   x="134.1562"
   y="-29.832916"
   id="text831"><tspan
     sodipodi:role="line"
     id="tspan829"
     x="134.1562"
     y="-29.832916"
     style="font-style:normal;font-variant:normal;font-weight:normal;font-stretch:normal;font-size:85.33333588px;font-family:Audiowide;-inkscape-font-specification:Audiowide;fill:#ffffff;fill-opacity:0.99302326">caretaker</tspan></text>

</g>

</g></svg>
